# xmcd CD Database Entry
#
# Track frame offsets:
# 150
# 20282
# 40244
# 59947
# 79580
# 99481
# 119921
# 136415
# 157131
# 178419
# 200747
# 225554
# 244391
# 264655
# 285765
# 305760
#
# Disc length: 4341 seconds
#
# Revision: 1
# Processed by: cddbd v1.4b41PL3 Copyright (c) Steve Scherf et al.
# Submitted via: tcd 2.0b
#
DISCID=f310f310
DTITLE=Duet Album 
DYEAR=1900
DGENRE=
TTITLE0=1번 트랙
TTITLE1=기적
TTITLE2=우리 헤어지면
TTITLE3=그대니까요
TTITLE4=Say Goodbye
TTITLE5=깊은 상처
TTITLE6=전설속의 사랑
TTITLE7=그대 아니었다면
TTITLE8=너를 지켜줄께
TTITLE9=우리 이렇게 스쳐 보내면
TTITLE10=우둔남녀
TTITLE11=우리 다시
TTITLE12=그들이 사랑하기까지
TTITLE13=Love Song
TTITLE14=우리 사랑 이대로
TTITLE15=For You
EXTD=
EXTT0=
EXTT1=
EXTT2=
EXTT3=
EXTT4=
EXTT5=LIVE
EXTT6=
EXTT7=
EXTT8=
EXTT9=
EXTT10=
EXTT11=
EXTT12=LIVE
EXTT13=
EXTT14=
EXTT15=
PLAYORDER=
